<svg width="16" height="18" viewBox="0 0 16 18" fill="none" xmlns="http://www.w3.org/2000/svg">
<path fill-rule="evenodd" clip-rule="evenodd" d="M6 18H10V11H6V18Z" fill="#1F1F1F"/>
<path fill-rule="evenodd" clip-rule="evenodd" d="M15.488 7.35998L8.63556 0.260034C8.30044 -0.0866781 7.69956 -0.0866781 7.36444 0.260034L0.511111 7.36088C0.186667 7.69859 0 8.17048 0 8.65588V16.1989C0 17.1922 0.753778 18 1.67911 18H4.44444V9.89504C4.44444 9.39793 4.84178 8.99448 5.33333 8.99448H10.6667C11.1582 8.99448 11.5556 9.39793 11.5556 9.89504V18H14.3218C15.2471 18 16 17.1922 16 16.1989V8.65588C16 8.17048 15.8133 7.69859 15.488 7.35998Z" fill="#1F1F1F"/>
</svg>
