<svg width="16" height="16" viewBox="0 0 16 16" fill="none" xmlns="http://www.w3.org/2000/svg">
<path fill-rule="evenodd" clip-rule="evenodd" d="M9.49231 0.928851C11.8093 1.54371 13.6 3.5918 13.6 6.54268C13.6 8.4507 14.0254 9.52498 14.8123 10.3061C14.9458 10.4386 15.309 10.7431 15.5496 10.9448C15.6605 11.0378 15.7454 11.1089 15.7696 11.1312L16 11.3435V13.8226H11.0995C10.8993 14.5385 10.406 15.1655 9.67024 15.5735C8.64468 16.1422 7.35532 16.1422 6.32976 15.5735C5.49607 15.1112 5.03507 14.5946 4.87038 13.8226H0V11.3435L0.230372 11.1312C0.257109 11.1068 0.345517 11.0329 0.459647 10.9375L0.459717 10.9374C0.701029 10.7357 1.05728 10.4379 1.18877 10.3079C1.97519 9.53034 2.4 8.45743 2.4 6.54268C2.4 3.58335 4.18828 1.53973 6.50825 0.927551C6.59217 0.730784 6.72458 0.547866 6.90441 0.394327C7.52022 -0.131442 8.47978 -0.131442 9.09559 0.394327C9.27582 0.548204 9.40841 0.731589 9.49231 0.928851ZM6.54289 13.8226H9.38938C9.26063 14.0259 9.07471 14.2004 8.83679 14.3324C8.32299 14.6173 7.67701 14.6173 7.16321 14.3324C6.84857 14.1579 6.65592 14.0136 6.54289 13.8226Z" fill="#1F1F1F"/>
<path fill-rule="evenodd" clip-rule="evenodd" d="M14.4 11.96C14.1613 11.7605 13.8005 11.455 13.6321 11.2879C12.5648 10.2284 12 8.80198 12 6.54273C12 3.80301 10.1278 2.18994 8.00001 2.18994C5.86622 2.18994 4.00001 3.79473 4.00001 6.54273C4.00001 8.80926 3.43538 10.2353 2.36679 11.2918C2.19875 11.4579 1.83686 11.7631 1.60001 11.9603L1.60001 12.3687H14.4V11.96Z" fill="white"/>
</svg>
