<svg width="14" height="18" viewBox="0 0 14 18" fill="none" xmlns="http://www.w3.org/2000/svg">
<path d="M13.25 16.5001V16.5V3C13.25 2.40326 13.0129 1.83097 12.591 1.40901C12.169 0.987053 11.5967 0.75 11 0.75H3C2.40326 0.75 1.83097 0.987053 1.40901 1.40901C0.987053 1.83097 0.75 2.40326 0.75 3L0.75 16.5L0.75 16.5001C0.75007 16.6358 0.786936 16.7689 0.856671 16.8853C0.926406 17.0016 1.0264 17.0969 1.146 17.1609C1.2656 17.225 1.40033 17.2554 1.53584 17.2489C1.66709 17.2426 1.79431 17.202 1.90481 17.1311L7 14.385L12.0952 17.1311C12.2057 17.202 12.3329 17.2426 12.4642 17.2489C12.5997 17.2554 12.7344 17.225 12.854 17.1609C12.9736 17.0969 13.0736 17.0016 13.1433 16.8853C13.2131 16.7689 13.2499 16.6358 13.25 16.5001ZM2.46967 2.46967C2.61032 2.32902 2.80109 2.25 3 2.25H11C11.1989 2.25 11.3897 2.32902 11.5303 2.46967C11.671 2.61032 11.75 2.80109 11.75 3V15.1522L7.40358 12.8681C7.28312 12.7912 7.14311 12.7503 7 12.7503C6.85689 12.7503 6.71688 12.7912 6.59642 12.8681L2.25 15.1522V3C2.25 2.80109 2.32902 2.61032 2.46967 2.46967Z" fill="#1F1F1F" stroke="#1F1F1F" stroke-width="0.5"/>
</svg>
