<svg width="18" height="18" viewBox="0 0 18 18" fill="none" xmlns="http://www.w3.org/2000/svg">
<path fill-rule="evenodd" clip-rule="evenodd" d="M5.95364 18C5.51627 18 5.0915 17.8578 4.73332 17.5851L2.86864 16.1694C1.97769 15.4944 1.78061 14.1957 2.42857 13.275C2.76514 12.798 2.83444 12.1851 2.63645 11.6037L2.58696 11.4525C2.42227 10.9287 2.04609 10.5219 1.58082 10.3626H1.57992L1.43323 10.3113C0.337098 9.936 -0.247865 8.7741 0.100413 7.6653L0.834767 5.3298C1.00126 4.8015 1.36033 4.3749 1.8463 4.1292C2.32147 3.8898 2.85874 3.8529 3.36091 4.0248C3.89997 4.2084 4.49844 4.1085 4.96011 3.7575L5.0762 3.6693C5.48657 3.3561 5.73406 2.8476 5.73586 2.3103L5.73676 2.0934C5.74126 0.9378 6.6637 0 7.79133 0H7.79493L10.0871 0.0027C10.6288 0.0036 11.14 0.2178 11.5252 0.6057C11.9239 1.0062 12.1417 1.5417 12.1399 2.1132L12.1381 2.3643C12.1363 2.8737 12.3693 3.3552 12.7626 3.6504L12.8589 3.7233C13.272 4.0338 13.8101 4.1229 14.2934 3.9609L14.5985 3.8592C15.1178 3.6864 15.6703 3.7287 16.1572 3.978C16.6567 4.2336 17.0256 4.6737 17.1948 5.2182L17.9031 7.4871C18.2451 8.5833 17.6529 9.7659 16.5847 10.1232L16.4038 10.1835C15.8854 10.3581 15.4777 10.7901 15.3149 11.3409C15.1655 11.8458 15.2519 12.4011 15.5479 12.8277L15.7819 13.1652C16.4245 14.094 16.2193 15.3972 15.3248 16.0713L13.47 17.4717C13.0245 17.8083 12.4782 17.9442 11.9302 17.8569C11.3776 17.7678 10.8952 17.4618 10.5722 16.9956L10.466 16.8408C10.151 16.3872 9.64701 16.1118 9.11874 16.1415C8.58958 16.1559 8.1324 16.407 7.83362 16.8318L7.62574 17.127C7.29996 17.5887 6.81669 17.8902 6.26682 17.9766C6.16153 17.9928 6.05714 18 5.95364 18Z" fill="#1F1F1F"/>
<path fill-rule="evenodd" clip-rule="evenodd" d="M2.16363 8.6596C3.16797 9.0043 3.96802 9.8449 4.3028 10.9105L4.33879 11.0185C4.72217 12.1489 4.56648 13.3657 3.92392 14.2783C3.80693 14.4439 3.83302 14.6419 3.95632 14.7355L5.821 16.1521C5.8867 16.2016 5.95059 16.2016 5.99019 16.1971C6.03519 16.1899 6.10088 16.1656 6.15398 16.09L6.36187 15.7948C6.98193 14.9155 7.98086 14.3728 9.0356 14.3422C10.2199 14.3179 11.2837 14.8606 11.946 15.8173L12.0522 15.9712C12.1053 16.0468 12.1701 16.072 12.216 16.0792C12.2556 16.0873 12.3204 16.0846 12.3852 16.0342L14.24 14.6347C14.3696 14.5375 14.3984 14.3296 14.3021 14.1901L14.0681 13.8526C13.4651 12.9814 13.286 11.851 13.5893 10.8295C13.9187 9.7171 14.7565 8.8369 15.832 8.4769L16.0129 8.4157C16.1577 8.368 16.236 8.188 16.1847 8.0224L15.4765 5.7535C15.4432 5.6473 15.3748 5.5996 15.337 5.5798C15.283 5.5519 15.2245 5.5474 15.1687 5.5663L14.8627 5.668C13.8161 6.0163 12.6615 5.8273 11.775 5.1604L11.6778 5.0875C10.8355 4.4539 10.3342 3.4324 10.3378 2.356L10.3396 2.104C10.3396 1.9843 10.2829 1.9096 10.2487 1.8754C10.2163 1.8421 10.1614 1.8025 10.084 1.8025L7.79187 1.7998C7.65148 1.7998 7.53719 1.9339 7.53629 2.0995L7.53539 2.3173C7.53089 3.4108 7.01882 4.4512 6.16568 5.1019L6.04958 5.1901C5.11094 5.9038 3.88702 6.1054 2.77829 5.7274C2.73599 5.713 2.6964 5.7157 2.6586 5.7355C2.6298 5.7499 2.5776 5.7868 2.55241 5.8687L1.81715 8.2051C1.76406 8.3752 1.85135 8.5525 2.01604 8.6092L2.16363 8.6596Z" fill="white"/>
<path fill-rule="evenodd" clip-rule="evenodd" d="M9.00118 12.1501C7.26429 12.1501 5.85138 10.7371 5.85138 9.0001C5.85138 7.2631 7.26429 5.8501 9.00118 5.8501C10.7381 5.8501 12.151 7.2631 12.151 9.0001C12.151 10.7371 10.7381 12.1501 9.00118 12.1501Z" fill="#1F1F1F"/>
<path fill-rule="evenodd" clip-rule="evenodd" d="M9.00119 7.6499C8.25694 7.6499 7.65128 8.2556 7.65128 8.9999C7.65128 9.7442 8.25694 10.3499 9.00119 10.3499C9.74544 10.3499 10.3511 9.7442 10.3511 8.9999C10.3511 8.2556 9.74544 7.6499 9.00119 7.6499Z" fill="white"/>
</svg>
