<svg width="16" height="16" viewBox="0 0 16 16" fill="none" xmlns="http://www.w3.org/2000/svg">
<path fill-rule="evenodd" clip-rule="evenodd" d="M15.7393 14.4827L12.7216 11.464C13.6576 10.2604 14.222 8.752 14.222 7.11111C14.222 3.19022 11.0318 0 7.11101 0C3.19018 0 0 3.19022 0 7.11111C0 11.032 3.19018 14.2222 7.11101 14.2222C8.75188 14.2222 10.2603 13.6578 11.4638 12.7218L14.4825 15.7396C14.6558 15.9129 14.8833 16 15.1109 16C15.3385 16 15.566 15.9129 15.7393 15.7396C16.0869 15.392 16.0869 14.8302 15.7393 14.4827Z" fill="#9E9E9E"/>
<path fill-rule="evenodd" clip-rule="evenodd" d="M2 7C2 4.2425 4.2425 2 7 2C9.7575 2 12 4.2425 12 7C12 9.7575 9.7575 12 7 12C4.2425 12 2 9.7575 2 7Z" fill="#F7F6F6"/>
</svg>
