<svg width="18" height="16" viewBox="0 0 18 16" fill="none" xmlns="http://www.w3.org/2000/svg">
<path d="M16.7041 6.68443C17.0986 7.17157 17.0986 7.82921 16.7041 8.31557C15.4616 9.84693 12.4805 13 9.00013 13C5.51971 13 2.53864 9.84693 1.29611 8.31557C1.10419 8.08232 1 7.79536 1 7.5C1 7.20464 1.10419 6.91768 1.29611 6.68443C2.53864 5.15307 5.51971 2 9.00013 2C12.4805 2 15.4616 5.15307 16.7041 6.68443V6.68443Z" stroke="#9E9E9E" stroke-width="2" stroke-linecap="round" stroke-linejoin="round"/>
<path d="M9.00013 10.2814C10.379 10.2814 11.4968 9.22704 11.4968 7.92641C11.4968 6.62578 10.379 5.57141 9.00013 5.57141C7.62123 5.57141 6.50342 6.62578 6.50342 7.92641C6.50342 9.22704 7.62123 10.2814 9.00013 10.2814Z" stroke="#9E9E9E" stroke-width="2" stroke-linecap="round" stroke-linejoin="round"/>
</svg>
